<svg id="apple" xmlns="http://www.w3.org/2000/svg" width="153.723" height="43.752" viewBox="0 0 153.723 43.752">
  <path id="Path_17" data-name="Path 17" d="M153.146,39.056a4.3,4.3,0,0,1-4.378,4.22H5.514a4.3,4.3,0,0,1-4.383-4.22V5.4A4.31,4.31,0,0,1,5.514,1.175H148.767A4.3,4.3,0,0,1,153.145,5.4Z" transform="translate(-0.277 -0.349)"/>
  <path id="Path_18" data-name="Path 18" d="M148.306,1.226a4.7,4.7,0,0,1,4.782,4.593V38.632a4.7,4.7,0,0,1-4.782,4.593H5.971A4.7,4.7,0,0,1,1.19,38.632V5.818A4.7,4.7,0,0,1,5.971,1.226Zm0-.876H5.971A5.6,5.6,0,0,0,.277,5.818V38.632A5.6,5.6,0,0,0,5.971,44.1H148.306A5.6,5.6,0,0,0,154,38.632V5.818A5.6,5.6,0,0,0,148.306.349Z" transform="translate(-0.277 -0.349)" fill="#a6a6a6"/>
  <path id="Path_19" data-name="Path 19" d="M34.584,21.989a6.328,6.328,0,0,1,3.144-5.32A6.859,6.859,0,0,0,32.4,13.9c-2.24-.226-4.412,1.287-5.553,1.287-1.164,0-2.921-1.266-4.814-1.228a7.133,7.133,0,0,0-5.967,3.5c-2.58,4.291-.656,10.6,1.816,14.065,1.237,1.7,2.682,3.6,4.573,3.529,1.85-.073,2.542-1.133,4.774-1.133,2.212,0,2.861,1.133,4.791,1.09,1.986-.031,3.236-1.706,4.43-3.42a13.792,13.792,0,0,0,2.026-3.963A6.173,6.173,0,0,1,34.584,21.989Z" transform="translate(-0.277 -0.349)" fill="#fff"/>
  <path id="Path_20" data-name="Path 20" d="M30.94,11.622A6.08,6.08,0,0,0,32.427,7.15a6.713,6.713,0,0,0-4.279,2.126,5.8,5.8,0,0,0-1.526,4.307A5.557,5.557,0,0,0,30.94,11.622Z" transform="translate(-0.277 -0.349)" fill="#fff"/>
  <path id="Path_21" data-name="Path 21" d="M56.13,11.3a3.522,3.522,0,0,1-1.2,2.907,4.929,4.929,0,0,1-3.169.9,15.284,15.284,0,0,1-1.746-.085V7.986a13.4,13.4,0,0,1,2.055-.149,4.559,4.559,0,0,1,2.949.817A3.239,3.239,0,0,1,56.13,11.3Zm-1.258.032a2.553,2.553,0,0,0-.69-1.921,2.787,2.787,0,0,0-2.017-.668,5.253,5.253,0,0,0-.961.074v5.348a6.554,6.554,0,0,0,.806.032,2.89,2.89,0,0,0,2.115-.732A2.861,2.861,0,0,0,54.872,11.329Z" transform="translate(-0.277 -0.349)" fill="#fff"/>
  <path id="Path_22" data-name="Path 22" d="M62.8,12.422a2.761,2.761,0,0,1-.707,1.952,2.575,2.575,0,0,1-1.966.785,2.447,2.447,0,0,1-1.883-.754,2.68,2.68,0,0,1-.7-1.9,2.735,2.735,0,0,1,.723-1.962,2.56,2.56,0,0,1,1.949-.763,2.505,2.505,0,0,1,1.9.753A2.657,2.657,0,0,1,62.8,12.422Zm-1.238.037a2.261,2.261,0,0,0-.32-1.224,1.186,1.186,0,0,0-1.07-.617,1.206,1.206,0,0,0-1.094.617,2.29,2.29,0,0,0-.32,1.245,2.261,2.261,0,0,0,.32,1.224,1.213,1.213,0,0,0,1.083.617,1.2,1.2,0,0,0,1.07-.628A2.247,2.247,0,0,0,61.564,12.459Z" transform="translate(-0.277 -0.349)" fill="#fff"/>
  <path id="Path_23" data-name="Path 23" d="M71.747,9.886l-1.68,5.156H68.974l-.7-2.239a16.213,16.213,0,0,1-.432-1.666h-.022a11.808,11.808,0,0,1-.432,1.666l-.739,2.239H65.549L63.97,9.886H65.2l.607,2.451q.22.87.364,1.655h.022q.133-.646.443-1.644l.762-2.461h.972L69.1,12.3q.265.881.43,1.7h.033a15.646,15.646,0,0,1,.364-1.7l.651-2.409h1.172Z" transform="translate(-0.277 -0.349)" fill="#fff"/>
  <path id="Path_24" data-name="Path 24" d="M77.933,15.042H76.74V12.089q0-1.365-1.082-1.365a1.1,1.1,0,0,0-.862.375,1.3,1.3,0,0,0-.331.884v3.058H73.272V11.36q0-.679-.043-1.476h1.049l.056.806h.033a1.686,1.686,0,0,1,.618-.622,2.08,2.08,0,0,1,1.082-.29,1.752,1.752,0,0,1,1.249.467,2.217,2.217,0,0,1,.618,1.708v3.089Z" transform="translate(-0.277 -0.349)" fill="#fff"/>
  <path id="Path_25" data-name="Path 25" d="M81.224,15.042H80.032V7.521h1.192Z" transform="translate(-0.277 -0.349)" fill="#fff"/>
  <path id="Path_26" data-name="Path 26" d="M88.25,12.422a2.761,2.761,0,0,1-.707,1.952,2.577,2.577,0,0,1-1.966.785,2.444,2.444,0,0,1-1.883-.754,2.68,2.68,0,0,1-.7-1.9,2.735,2.735,0,0,1,.723-1.962,2.559,2.559,0,0,1,1.948-.763,2.508,2.508,0,0,1,1.9.753A2.657,2.657,0,0,1,88.25,12.422Zm-1.239.037a2.261,2.261,0,0,0-.32-1.224,1.185,1.185,0,0,0-1.069-.617,1.2,1.2,0,0,0-1.094.617,2.29,2.29,0,0,0-.32,1.245,2.26,2.26,0,0,0,.32,1.224,1.213,1.213,0,0,0,1.083.617,1.2,1.2,0,0,0,1.069-.628A2.238,2.238,0,0,0,87.011,12.459Z" transform="translate(-0.277 -0.349)" fill="#fff"/>
  <path id="Path_27" data-name="Path 27" d="M94.025,15.042H92.954l-.089-.594h-.033a1.867,1.867,0,0,1-1.568.711,1.653,1.653,0,0,1-1.225-.467,1.433,1.433,0,0,1-.42-1.05,1.588,1.588,0,0,1,.823-1.443,4.415,4.415,0,0,1,2.315-.488v-.1q0-1.019-1.115-1.018a2.572,2.572,0,0,0-1.4.382L90,10.226a3.554,3.554,0,0,1,1.841-.445,1.874,1.874,0,0,1,2.107,2.133v1.9A7.746,7.746,0,0,0,94.025,15.042Zm-1.239-1.772v-.8q-1.974-.033-1.975,1.039a.76.76,0,0,0,.229.6.855.855,0,0,0,.583.2,1.238,1.238,0,0,0,.73-.238.975.975,0,0,0,.413-.61A.935.935,0,0,0,92.786,13.271Z" transform="translate(-0.277 -0.349)" fill="#fff"/>
  <path id="Path_28" data-name="Path 28" d="M100.806,15.042H99.747l-.056-.828h-.033a1.8,1.8,0,0,1-1.724.945,2.053,2.053,0,0,1-1.612-.732,2.778,2.778,0,0,1-.64-1.9,2.915,2.915,0,0,1,.7-2.027,2.177,2.177,0,0,1,1.657-.722,1.63,1.63,0,0,1,1.512.7h.023V7.521h1.194v6.133Q100.764,14.407,100.806,15.042ZM99.57,12.868v-.86a1.625,1.625,0,0,0-.033-.361,1.3,1.3,0,0,0-.432-.695,1.2,1.2,0,0,0-.8-.281,1.241,1.241,0,0,0-1.05.51,2.122,2.122,0,0,0-.383,1.3,1.979,1.979,0,0,0,.367,1.241,1.245,1.245,0,0,0,1.043.509,1.169,1.169,0,0,0,.943-.424A1.379,1.379,0,0,0,99.57,12.868Z" transform="translate(-0.277 -0.349)" fill="#fff"/>
  <path id="Path_29" data-name="Path 29" d="M111.012,12.422a2.762,2.762,0,0,1-.707,1.952,2.573,2.573,0,0,1-1.966.785,2.451,2.451,0,0,1-1.884-.754,2.679,2.679,0,0,1-.7-1.9,2.734,2.734,0,0,1,.723-1.962,2.562,2.562,0,0,1,1.951-.763,2.5,2.5,0,0,1,1.9.753A2.659,2.659,0,0,1,111.012,12.422Zm-1.236.037a2.26,2.26,0,0,0-.32-1.224,1.189,1.189,0,0,0-1.072-.617,1.207,1.207,0,0,0-1.094.617,2.291,2.291,0,0,0-.32,1.245,2.26,2.26,0,0,0,.32,1.224,1.212,1.212,0,0,0,1.083.617,1.2,1.2,0,0,0,1.071-.628A2.255,2.255,0,0,0,109.776,12.459Z" transform="translate(-0.277 -0.349)" fill="#fff"/>
  <path id="Path_30" data-name="Path 30" d="M117.429,15.042h-1.192V12.089q0-1.365-1.083-1.365a1.093,1.093,0,0,0-.861.375,1.3,1.3,0,0,0-.332.884v3.058h-1.194V11.36q0-.679-.042-1.476h1.047l.056.806h.033a1.706,1.706,0,0,1,.619-.622,2.08,2.08,0,0,1,1.082-.29,1.75,1.75,0,0,1,1.248.467,2.211,2.211,0,0,1,.619,1.708v3.089Z" transform="translate(-0.277 -0.349)" fill="#fff"/>
  <path id="Path_31" data-name="Path 31" d="M125.46,10.745h-1.314v2.5c0,.637.233.955.7.955a2.177,2.177,0,0,0,.531-.054l.031.87a2.78,2.78,0,0,1-.927.128,1.457,1.457,0,0,1-1.1-.413,1.964,1.964,0,0,1-.4-1.39v-2.6h-.784V9.886h.784V8.941l1.17-.339V9.885h1.314v.86Z" transform="translate(-0.277 -0.349)" fill="#fff"/>
  <path id="Path_32" data-name="Path 32" d="M131.777,15.042h-1.194V12.111q0-1.386-1.081-1.387a1.135,1.135,0,0,0-1.138.8,1.364,1.364,0,0,0-.056.412v3.1h-1.192V7.521h1.192v3.107h.022a1.824,1.824,0,0,1,1.613-.848,1.7,1.7,0,0,1,1.227.467,2.29,2.29,0,0,1,.607,1.729v3.066Z" transform="translate(-0.277 -0.349)" fill="#fff"/>
  <path id="Path_33" data-name="Path 33" d="M138.294,12.22a2.7,2.7,0,0,1-.044.519h-3.579a1.475,1.475,0,0,0,.518,1.167,1.826,1.826,0,0,0,1.172.361,4.1,4.1,0,0,0,1.447-.244l.187.8a4.658,4.658,0,0,1-1.8.318,2.663,2.663,0,0,1-1.96-.705,2.54,2.54,0,0,1-.711-1.893,2.88,2.88,0,0,1,.662-1.941,2.323,2.323,0,0,1,1.877-.827,2.026,2.026,0,0,1,1.755.827A2.674,2.674,0,0,1,138.294,12.22Zm-1.139-.3a1.5,1.5,0,0,0-.231-.88,1.054,1.054,0,0,0-.95-.478,1.147,1.147,0,0,0-.949.467,1.691,1.691,0,0,0-.354.891Z" transform="translate(-0.277 -0.349)" fill="#fff"/>
  <path id="Path_34" data-name="Path 34" d="M61.362,34.808H58.776L57.36,30.533H52.436l-1.349,4.276H48.569l4.878-14.556H56.46Zm-4.429-6.069-1.281-3.8q-.2-.582-.764-2.742h-.046q-.224.929-.72,2.742l-1.258,3.8Z" transform="translate(-0.277 -0.349)" fill="#fff"/>
  <path id="Path_35" data-name="Path 35" d="M73.907,29.431A5.822,5.822,0,0,1,72.4,33.663a4.492,4.492,0,0,1-3.35,1.382,3.392,3.392,0,0,1-3.1-1.49H65.9v5.529H63.474V27.768q0-1.683-.09-3.455h2.135l.135,1.664H65.7a4.426,4.426,0,0,1,6.913-.411A5.635,5.635,0,0,1,73.907,29.431Zm-2.473.085a4.2,4.2,0,0,0-.72-2.527A2.518,2.518,0,0,0,68.6,25.953a2.588,2.588,0,0,0-1.629.572,2.64,2.64,0,0,0-.955,1.5,2.94,2.94,0,0,0-.113.711v1.75a2.74,2.74,0,0,0,.731,1.934,2.47,2.47,0,0,0,1.9.789A2.52,2.52,0,0,0,70.669,32.2,4.339,4.339,0,0,0,71.434,29.517Z" transform="translate(-0.277 -0.349)" fill="#fff"/>
  <path id="Path_36" data-name="Path 36" d="M86.475,29.431a5.818,5.818,0,0,1-1.508,4.232,4.487,4.487,0,0,1-3.349,1.382,3.389,3.389,0,0,1-3.1-1.49h-.046v5.529H76.043V27.768q0-1.683-.09-3.455h2.135l.135,1.664h.046a4.427,4.427,0,0,1,6.914-.411A5.65,5.65,0,0,1,86.475,29.431ZM84,29.517a4.2,4.2,0,0,0-.721-2.527,2.515,2.515,0,0,0-2.112-1.037,2.591,2.591,0,0,0-1.631.572,2.637,2.637,0,0,0-.954,1.5,3,3,0,0,0-.113.711v1.75a2.748,2.748,0,0,0,.729,1.934,2.475,2.475,0,0,0,1.9.789A2.52,2.52,0,0,0,83.236,32.2,4.338,4.338,0,0,0,84,29.517Z" transform="translate(-0.277 -0.349)" fill="#fff"/>
  <path id="Path_37" data-name="Path 37" d="M100.526,30.726A3.808,3.808,0,0,1,99.18,33.75a6.125,6.125,0,0,1-4.128,1.274,7.46,7.46,0,0,1-3.927-.907l.563-1.944a6.862,6.862,0,0,0,3.509.93,3.414,3.414,0,0,0,2.137-.6,1.913,1.913,0,0,0,.763-1.59,1.987,1.987,0,0,0-.63-1.492A5.917,5.917,0,0,0,95.377,28.3Q91.4,26.875,91.4,24.127a3.634,3.634,0,0,1,1.395-2.941,5.648,5.648,0,0,1,3.71-1.146,7.611,7.611,0,0,1,3.439.691l-.607,1.9a6.164,6.164,0,0,0-2.9-.669,3.016,3.016,0,0,0-2,.6,1.7,1.7,0,0,0-.607,1.318,1.753,1.753,0,0,0,.7,1.425,7.97,7.97,0,0,0,2.2,1.123,7.514,7.514,0,0,1,2.878,1.77A3.608,3.608,0,0,1,100.526,30.726Z" transform="translate(-0.277 -0.349)" fill="#fff"/>
  <path id="Path_38" data-name="Path 38" d="M108.553,26.062h-2.676v5.1q0,1.944,1.416,1.944a4.494,4.494,0,0,0,1.079-.108l.067,1.771a5.709,5.709,0,0,1-1.888.258,2.977,2.977,0,0,1-2.249-.842,4.021,4.021,0,0,1-.81-2.83V26.06H101.9V24.31h1.594V22.388l2.385-.691V24.31h2.676Z" transform="translate(-0.277 -0.349)" fill="#fff"/>
  <path id="Path_39" data-name="Path 39" d="M120.626,29.474a5.619,5.619,0,0,1-1.439,3.974,5.244,5.244,0,0,1-4,1.6,4.982,4.982,0,0,1-3.831-1.532,5.45,5.45,0,0,1-1.428-3.866,5.566,5.566,0,0,1,1.472-3.995,5.2,5.2,0,0,1,3.967-1.555,5.092,5.092,0,0,1,3.867,1.533A5.384,5.384,0,0,1,120.626,29.474Zm-2.519.076a4.577,4.577,0,0,0-.651-2.491,2.414,2.414,0,0,0-2.179-1.256,2.453,2.453,0,0,0-2.227,1.256,4.664,4.664,0,0,0-.651,2.534,4.571,4.571,0,0,0,.651,2.49,2.53,2.53,0,0,0,4.384-.022A4.59,4.59,0,0,0,118.107,29.549Z" transform="translate(-0.277 -0.349)" fill="#fff"/>
  <path id="Path_40" data-name="Path 40" d="M128.517,26.363a4.373,4.373,0,0,0-.765-.065,2.327,2.327,0,0,0-1.979.93,3.4,3.4,0,0,0-.607,2.073v5.507H122.74l.022-7.191q0-1.815-.091-3.3h2.115l.089,2.008h.067a3.589,3.589,0,0,1,1.214-1.663,3.014,3.014,0,0,1,1.754-.562,4.042,4.042,0,0,1,.607.043Z" transform="translate(-0.277 -0.349)" fill="#fff"/>
  <path id="Path_41" data-name="Path 41" d="M139.375,29.064a5.285,5.285,0,0,1-.089,1.058H132a2.991,2.991,0,0,0,1.056,2.377,3.708,3.708,0,0,0,2.383.734,8.354,8.354,0,0,0,2.947-.5l.38,1.619a9.442,9.442,0,0,1-3.663.649,5.43,5.43,0,0,1-3.993-1.436,5.186,5.186,0,0,1-1.449-3.855,5.864,5.864,0,0,1,1.35-3.952,4.732,4.732,0,0,1,3.821-1.683,4.128,4.128,0,0,1,3.576,1.683A5.515,5.515,0,0,1,139.375,29.064Zm-2.315-.6a3.072,3.072,0,0,0-.472-1.793,2.145,2.145,0,0,0-1.934-.972,2.334,2.334,0,0,0-1.933.951A3.4,3.4,0,0,0,132,28.458h5.057Z" transform="translate(-0.277 -0.349)" fill="#fff"/>
</svg>
