<svg id="google" xmlns="http://www.w3.org/2000/svg" width="153.723" height="43.752" viewBox="0 0 153.723 43.752">
  <path id="Path_42" data-name="Path 42" d="M148.029,44.1H5.693A5.6,5.6,0,0,1,0,38.633V5.819A5.6,5.6,0,0,1,5.693.35H148.029a5.6,5.6,0,0,1,5.694,5.469V38.633A5.6,5.6,0,0,1,148.029,44.1Z" transform="translate(0 -0.35)"/>
  <path id="Path_43" data-name="Path 43" d="M148.029,1.226a4.7,4.7,0,0,1,4.781,4.593V38.633a4.7,4.7,0,0,1-4.781,4.593H5.693A4.7,4.7,0,0,1,.912,38.633V5.819A4.7,4.7,0,0,1,5.693,1.226Zm0-.876H5.693A5.6,5.6,0,0,0,0,5.819V38.633A5.6,5.6,0,0,0,5.693,44.1H148.029a5.6,5.6,0,0,0,5.694-5.469V5.819A5.6,5.6,0,0,0,148.029.35Z" transform="translate(0 -0.35)" fill="#a6a6a6"/>
  <path id="Path_44" data-name="Path 44" d="M11.882,8.6a2.124,2.124,0,0,0-.528,1.538V34.323a2.124,2.124,0,0,0,.528,1.538l.082.074L26.076,22.386v-.32L11.965,8.517Z" transform="translate(0 -0.35)" fill="#fff"/>
  <path id="Path_45" data-name="Path 45" d="M30.774,26.9l-4.7-4.519v-.32l4.7-4.519.105.059,5.571,3.045c1.59.864,1.59,2.286,0,3.156l-5.571,3.039-.111.059Z" transform="translate(0 -0.35)" fill="#fff"/>
  <path id="Path_46" data-name="Path 46" d="M30.885,26.846l-4.81-4.62L11.882,35.861a1.913,1.913,0,0,0,2.368.064l16.635-9.08" transform="translate(0 -0.35)" fill="#fff"/>
  <path id="Path_47" data-name="Path 47" d="M30.885,17.606,14.251,8.526a1.92,1.92,0,0,0-2.368.07l14.194,13.63Z" transform="translate(0 -0.35)" fill="#fff"/>
  <path id="Path_48" data-name="Path 48" d="M53.994,11.554a2.92,2.92,0,0,1-.845,2.19,3.4,3.4,0,0,1-2.514.972,3.528,3.528,0,0,1-2.512-.983,3.249,3.249,0,0,1-1.035-2.446,3.229,3.229,0,0,1,1.035-2.441,3.51,3.51,0,0,1,2.512-.989,3.7,3.7,0,0,1,1.4.278,2.777,2.777,0,0,1,1.068.731l-.595.577a2.364,2.364,0,0,0-1.875-.774,2.666,2.666,0,0,0-1.867.726,2.467,2.467,0,0,0-.784,1.891,2.479,2.479,0,0,0,.784,1.9,2.691,2.691,0,0,0,1.867.726,2.653,2.653,0,0,0,1.907-.731,2.019,2.019,0,0,0,.572-1.33H50.634v-.79h3.308a2.158,2.158,0,0,1,.051.5Z" transform="translate(0 -0.35)" fill="#fff" stroke="#fff" stroke-width="0.128"/>
  <path id="Path_49" data-name="Path 49" d="M59.242,8.814H56.134v2.078h2.8v.79h-2.8v2.078h3.107v.805H55.255V8.009h3.987Z" transform="translate(0 -0.35)" fill="#fff" stroke="#fff" stroke-width="0.128"/>
  <path id="Path_50" data-name="Path 50" d="M62.945,14.566h-.88V8.814H60.16V8.009h4.693v.805H62.945v5.752Z" transform="translate(0 -0.35)" fill="#fff" stroke="#fff" stroke-width="0.128"/>
  <path id="Path_51" data-name="Path 51" d="M68.249,14.566V8.009h.878v6.557Z" transform="translate(0 -0.35)" fill="#fff" stroke="#fff" stroke-width="0.128"/>
  <path id="Path_52" data-name="Path 52" d="M73.02,14.566h-.872V8.814H70.234V8.009h4.7v.805H73.02Z" transform="translate(0 -0.35)" fill="#fff" stroke="#fff" stroke-width="0.128"/>
  <path id="Path_53" data-name="Path 53" d="M83.817,13.723a3.654,3.654,0,0,1-5.01,0A3.285,3.285,0,0,1,77.8,11.288a3.285,3.285,0,0,1,1.006-2.435,3.639,3.639,0,0,1,5,.005,3.274,3.274,0,0,1,1.012,2.43A3.285,3.285,0,0,1,83.817,13.723Zm-4.36-.55a2.7,2.7,0,0,0,3.709,0,2.52,2.52,0,0,0,.761-1.885A2.52,2.52,0,0,0,83.167,9.4a2.7,2.7,0,0,0-3.709,0,2.52,2.52,0,0,0-.761,1.885,2.52,2.52,0,0,0,.761,1.885Z" transform="translate(0 -0.35)" fill="#fff" stroke="#fff" stroke-width="0.128"/>
  <path id="Path_54" data-name="Path 54" d="M86.058,14.566V8.009h1.067l3.319,5.1h.038l-.038-1.261V8.009h.878v6.557h-.917L86.93,9.215h-.038l.038,1.266v4.085Z" transform="translate(0 -0.35)" fill="#fff" stroke="#fff" stroke-width="0.128"/>
  <path id="Path_55" data-name="Path 55" d="M77.584,24.142A4.657,4.657,0,1,0,82.449,28.8,4.684,4.684,0,0,0,77.584,24.142Zm0,7.472A2.821,2.821,0,1,1,80.32,28.8a2.739,2.739,0,0,1-2.736,2.819Zm-10.6-7.472A4.656,4.656,0,1,0,71.841,28.8,4.681,4.681,0,0,0,66.982,24.142Zm0,7.472a2.821,2.821,0,1,1,2.73-2.819A2.743,2.743,0,0,1,66.982,31.615ZM54.365,25.569v1.977H59.28a4.03,4.03,0,0,1-1.117,2.483,5.154,5.154,0,0,1-3.8,1.442,5.252,5.252,0,1,1,3.7-9.091l1.45-1.393a7.323,7.323,0,0,0-5.154-1.992,7.486,7.486,0,0,0-7.633,7.226,7.486,7.486,0,0,0,7.633,7.226,7.022,7.022,0,0,0,5.249-2.029,6.883,6.883,0,0,0,1.668-5.849ZM105.956,27.1A4.492,4.492,0,0,0,97.244,28.8a4.646,4.646,0,0,0,4.8,4.651,4.846,4.846,0,0,0,4.036-2.062l-1.651-1.057a2.794,2.794,0,0,1-2.385,1.287A2.473,2.473,0,0,1,99.7,30.2l6.478-2.575-.224-.529Zm-6.6,1.549a2.6,2.6,0,0,1,2.529-2.713,1.894,1.894,0,0,1,1.8.987L99.352,28.65Zm-5.265,4.513h2.129V19.491H94.087ZM90.6,25.179h-.071a3.419,3.419,0,0,0-2.546-1.036,4.652,4.652,0,0,0,0,9.3,3.367,3.367,0,0,0,2.546-1.057H90.6v.667a2.426,2.426,0,0,1-2.585,2.735,2.681,2.681,0,0,1-2.441-1.661l-1.852.742a4.619,4.619,0,0,0,4.293,2.751c2.5,0,4.6-1.411,4.6-4.844V24.426H90.6v.753Zm-2.435,6.436a2.823,2.823,0,0,1,0-5.64A2.663,2.663,0,0,1,90.75,28.81a2.644,2.644,0,0,1-2.586,2.8Zm27.761-12.123h-5.092V33.164h2.123V27.983h2.969a4.438,4.438,0,0,0,4.672-4.247,4.442,4.442,0,0,0-4.672-4.245Zm.056,6.59h-3.025V21.393h3.025a2.348,2.348,0,1,1,0,4.688Zm13.128-1.965a4.015,4.015,0,0,0-3.787,2.093l1.885.759a2.33,2.33,0,0,1,4.176.753v.143a4.816,4.816,0,0,0-2.219-.529c-2.03,0-4.1,1.073-4.1,3.076,0,1.832,1.663,3.012,3.532,3.012a3.035,3.035,0,0,0,2.712-1.34h.073v1.057h2.051V27.9C133.434,25.473,131.55,24.117,129.109,24.117Zm-.257,7.492c-.694,0-1.662-.331-1.662-1.158,0-1.058,1.207-1.464,2.252-1.464a3.933,3.933,0,0,1,1.941.459,2.545,2.545,0,0,1-2.531,2.163Zm12.055-7.193-2.441,5.927h-.073l-2.524-5.927h-2.29l3.792,8.283-2.163,4.609h2.219l5.842-12.892Zm-19.143,8.748h2.129V19.491h-2.129Z" transform="translate(0 -0.35)" fill="#fff"/>
</svg>
