<svg xmlns="http://www.w3.org/2000/svg" width="13.333" height="10.667" viewBox="0 0 13.333 10.667">
  <path id="mail_FILL0_wght400_GRAD0_opsz20_1" data-name="mail_FILL0_wght400_GRAD0_opsz20 1" d="M2.734,13.333a1.351,1.351,0,0,1-.992-.409,1.349,1.349,0,0,1-.408-.991V4.066a1.349,1.349,0,0,1,.408-.991,1.351,1.351,0,0,1,.992-.409H13.267a1.394,1.394,0,0,1,1.4,1.4v7.867a1.394,1.394,0,0,1-1.4,1.4ZM8,8.75,2.734,5.466v6.467H13.267V5.466ZM8,7.366l5.3-3.3H2.717Zm-5.266-1.9v6.467h0Z" transform="translate(-1.334 -2.666)"/>
</svg>
