<svg xmlns="http://www.w3.org/2000/svg" xmlns:xlink="http://www.w3.org/1999/xlink" width="156.065" height="82" viewBox="0 0 156.065 82">
  <defs>
    <clipPath id="clip-path">
      <rect id="Rectangle_2" data-name="Rectangle 2" width="156.065" height="82" fill="none"/>
    </clipPath>
  </defs>
  <g id="Group_1060" data-name="Group 1060" transform="translate(0 0.267)">
    <g id="Group_1" data-name="Group 1" transform="translate(0 -0.267)" clip-path="url(#clip-path)">
      <path id="Path_1" data-name="Path 1" d="M19.586,317.4H16V307.6a5.965,5.965,0,0,0-1.731-4.449,6.123,6.123,0,0,0-4.479-1.7,6.086,6.086,0,0,0-4.448,1.732A5.932,5.932,0,0,0,3.583,307.6V317.4H0V297.39H3.583v2.688a9.492,9.492,0,0,1,6.21-2.21,11.742,11.742,0,0,1,4.6,1.015,6.093,6.093,0,0,1,3.523,2.926,9.3,9.3,0,0,1,7.762-3.941,9.7,9.7,0,0,1,7.047,2.8,9.338,9.338,0,0,1,2.866,6.965V317.4H32.007V307.6a5.962,5.962,0,0,0-1.732-4.449,6.119,6.119,0,0,0-4.478-1.7,6.089,6.089,0,0,0-4.449,1.732,5.931,5.931,0,0,0-1.761,4.419Z" transform="translate(0 -260.35)" fill="#f26b33"/>
      <path id="Path_2" data-name="Path 2" d="M742.627,312.715H726.863a6.317,6.317,0,0,0,10.45,2.687l2.508,2.48a9.324,9.324,0,0,1-6.868,2.895,9.7,9.7,0,0,1-7.046-2.8,9.823,9.823,0,0,1,0-13.871,9.8,9.8,0,0,1,16.72,6.936Zm-3.882-3.583a6.214,6.214,0,0,0-11.823,0Z" transform="translate(-633.513 -263.732)" fill="#f26b33"/>
      <path id="Path_3" data-name="Path 3" d="M907.94,317.4h-3.583V307.6a5.965,5.965,0,0,0-1.731-4.449,6.66,6.66,0,0,0-8.927.03,5.932,5.932,0,0,0-1.762,4.419V317.4h-3.583V297.39h3.583v2.688a9.828,9.828,0,0,1,13.137.648,9.4,9.4,0,0,1,2.867,6.906Z" transform="translate(-778.357 -260.35)" fill="#f26b33"/>
      <rect id="Rectangle_1" data-name="Rectangle 1" width="3.584" height="20.005" transform="translate(130.819 37.04)" fill="#f26b33"/>
      <path id="Path_4" data-name="Path 4" d="M1117.575,312.715h-15.765a6.317,6.317,0,0,0,10.45,2.687l2.508,2.48a9.324,9.324,0,0,1-6.868,2.895,9.7,9.7,0,0,1-7.045-2.8,9.823,9.823,0,0,1,0-13.871,9.8,9.8,0,0,1,16.72,6.936Zm-3.881-3.583a6.214,6.214,0,0,0-11.823,0Z" transform="translate(-962.035 -263.732)" fill="#f26b33"/>
      <path id="Path_5" data-name="Path 5" d="M1022.33,185.882l1.339,5.356,5.508-.381-4.68,2.929,2.065,5.121-4.232-3.546-4.232,3.546,2.065-5.121-4.68-2.929,5.508.381Z" transform="translate(-889.745 -162.649)" fill="#f6ae31"/>
      <path id="Path_6" data-name="Path 6" d="M26.818.368h0v0Z" transform="translate(-23.497 0.217)" fill="#f26b33"/>
      <path id="Path_7" data-name="Path 7" d="M341.654,318.675V299.806h3.583v9.972a5.958,5.958,0,0,0,1.732,4.448,6.66,6.66,0,0,0,8.927-.03,5.926,5.926,0,0,0,1.761-4.418q0-1.672.06-4.986t.059-4.986h3.584q0,1.667-.06,4.971t-.059,4.971a9.753,9.753,0,0,1-9.758,9.764,10.165,10.165,0,0,1-6.246-2.329c.04,2.652-3.583,5.035-3.583,1.493" transform="translate(-299.35 -262.467)" fill="#f26b33"/>
      <path id="Path_8" data-name="Path 8" d="M524.03,318.675v-1.313a9.658,9.658,0,0,1-6.21,2.15,9.764,9.764,0,1,1,6.21-17.317v-2.389h3.583v18.869c0,3.542-3.583,2.508-3.583,0m0-8.927a6,6,0,0,0-1.732-4.47,6.636,6.636,0,0,0-8.927.029,6.478,6.478,0,0,0,0,8.881,6.637,6.637,0,0,0,8.927.03,6.005,6.005,0,0,0,1.732-4.47" transform="translate(-445.122 -262.467)" fill="#f26b33"/>
      <path id="Path_9" data-name="Path 9" d="M481.62,582.982s-1.835,3.28.349,5.138c2.443,2.079-.961,5.075-.961,5.075s7.846-1.4,5.175-10.009Z" transform="translate(-421.354 -510.58)" fill="#329937"/>
      <path id="Path_10" data-name="Path 10" d="M441.453,496.647a9.123,9.123,0,0,0,7.715,2.257,20.906,20.906,0,0,0,8.789-3.5s-3.38,5.274-8.387,5.844-8.117-4.6-8.117-4.6" transform="translate(-386.792 -433.844)" fill="#329937"/>
      <path id="Path_11" data-name="Path 11" d="M370.066,112.666C371.36,96.188,360.039,87.825,348,87.825s-22.8,8.449-21.534,24.841" transform="translate(-285.953 -76.733)" fill="#329937"/>
      <path id="Path_12" data-name="Path 12" d="M678.819,275.284h0a4.494,4.494,0,0,1,4.481,4.481v7.783a4.494,4.494,0,0,1-4.481,4.481" transform="translate(-594.767 -240.981)" fill="#329937"/>
      <path id="Path_13" data-name="Path 13" d="M298.4,292.03h0a4.494,4.494,0,0,1-4.481-4.481v-7.783a4.494,4.494,0,0,1,4.481-4.481" transform="translate(-257.527 -240.982)" fill="#329937"/>
      <path id="Path_14" data-name="Path 14" d="M476.992,54.062s.712-4.623,4.331-6.83a6.349,6.349,0,0,1,5.7-.757,6.411,6.411,0,0,0-3.856,6.558l-.207,5.285H480.2Z" transform="translate(-417.93 -40.196)" fill="#329937"/>
      <path id="Path_15" data-name="Path 15" d="M553.094,445.575l-.563-3.712c5.134-.779,8.448-4.128,9.851-9.953a29.194,29.194,0,0,0,.566-9.24l3.724-.476a32.582,32.582,0,0,1-.616,10.491c-1.752,7.411-6.234,11.868-12.962,12.889" transform="translate(-484.116 -369.701)" fill="#f26b33"/>
      <path id="Path_16" data-name="Path 16" d="M355.435,445.575c-6.728-1.021-11.21-5.478-12.962-12.889a32.583,32.583,0,0,1-.616-10.491l3.724.478-1.862-.239,1.862.237a29.2,29.2,0,0,0,.566,9.24c1.4,5.825,4.717,9.174,9.851,9.953Z" transform="translate(-299.376 -369.701)" fill="#f26b33"/>
    </g>
  </g>
</svg>
